<?xml version="1.0" standalone="no"?>
<!DOCTYPE svg PUBLIC "-//W3C//DTD SVG 20010904//EN"
 "http://www.w3.org/TR/2001/REC-SVG-20010904/DTD/svg10.dtd">
<svg version="1.0" xmlns="http://www.w3.org/2000/svg"
 width="700.000000pt" height="700.000000pt" viewBox="0 0 700.000000 700.000000"
 preserveAspectRatio="xMidYMid meet">
<metadata>
Created by potrace 1.14, written by Peter Selinger 2001-2017
</metadata>
<g transform="translate(0.000000,700.000000) scale(0.100000,-0.100000)"
fill="#000000" stroke="none">
<path d="M3278 6995 c-1 -1 -42 -5 -89 -9 -47 -4 -96 -9 -109 -11 -12 -2 -48
-7 -79 -11 -57 -6 -76 -9 -121 -19 -33 -7 -68 -14 -105 -21 -294 -53 -700
-208 -1005 -382 -86 -49 -301 -187 -339 -218 -9 -7 -52 -41 -96 -75 -342 -266
-650 -623 -875 -1014 -47 -81 -170 -327 -170 -339 0 -3 -11 -29 -24 -58 -43
-96 -112 -298 -142 -413 -4 -16 -8 -34 -10 -40 -5 -16 -25 -98 -30 -120 -39
-194 -47 -242 -60 -350 -26 -230 -26 -667 1 -826 2 -13 6 -46 9 -74 9 -78 22
-152 51 -285 21 -96 91 -339 114 -395 5 -11 25 -65 46 -120 64 -170 213 -461
314 -615 214 -324 467 -601 775 -848 89 -72 367 -262 382 -262 4 0 15 -6 23
-14 47 -41 413 -212 576 -270 79 -27 261 -84 291 -90 10 -2 57 -13 104 -25
109 -26 200 -43 299 -57 25 -3 57 -8 71 -10 162 -25 683 -25 842 1 13 2 46 7
73 10 72 10 86 12 120 19 17 3 44 8 60 11 726 138 1438 544 1935 1104 36 41
70 79 76 85 6 6 48 61 94 121 150 197 277 405 383 628 26 53 47 99 47 102 0 2
11 28 24 57 57 127 151 421 182 573 17 81 54 301 59 350 4 33 9 71 11 85 9 47
11 525 4 605 -15 159 -21 210 -25 225 -2 8 -7 35 -10 60 -17 129 -80 384 -136
552 -356 1059 -1203 1891 -2269 2227 -145 46 -383 102 -490 116 -19 3 -46 7
-60 10 -13 2 -52 7 -86 11 -33 3 -74 8 -90 10 -32 5 -540 14 -546 9z"/>
</g>
</svg>
