<svg id="Layer_1" data-name="Layer 1" xmlns="http://www.w3.org/2000/svg" viewBox="0 0 305 305"><defs><style>.cls-1{fill:#434375;stroke-width:5px;}.cls-1,.cls-3,.cls-4{stroke:#7cd1eb;}.cls-1,.cls-3,.cls-4,.cls-5{stroke-miterlimit:10;}.cls-2{fill:#ededed;}.cls-3,.cls-4{fill:#dae0ee;}.cls-3{stroke-width:3.83px;}.cls-4{stroke-width:2px;}.cls-5{fill:none;stroke:#66cced;stroke-width:18px;}.cls-6{fill:#66cced;}</style></defs><circle class="cls-1" cx="152.5" cy="152.5" r="150"/><path class="cls-2" d="M33.4,126.82A11.39,11.39,0,0,1,37,128.1a9.65,9.65,0,0,1,3,2.53,10.07,10.07,0,0,1,1.78,3.79,12.32,12.32,0,0,1,0,5l-1.13,6.46c-.1.55-.19,1.19-.29,1.92s-.17,1.42-.25,2.08a.69.69,0,0,1-.29,0l-.25,0a.67.67,0,0,1-.44-.19.59.59,0,0,1-.1-.29,5.15,5.15,0,0,0-.17-1.54,1,1,0,0,0-.83-.72l-15.79-2.77a1,1,0,0,0-1,.3,5.26,5.26,0,0,0-.73,1.48c-.07.16-.15.25-.26.28a.91.91,0,0,1-.4,0l-.25,0a.91.91,0,0,1-.31-.12c.12-.43.22-.82.29-1.17s.14-.66.21-.95.14-.58.19-.88.1-.6.16-.91l1.11-6.4a12.73,12.73,0,0,1,1.64-4.57,10.2,10.2,0,0,1,2.8-3,9.54,9.54,0,0,1,3.61-1.51A11.29,11.29,0,0,1,33.4,126.82Zm-.16,4.46a14.08,14.08,0,0,0-4.32-.18,7.4,7.4,0,0,0-3.18,1.15,6.56,6.56,0,0,0-2.11,2.42,12.52,12.52,0,0,0-1.16,3.62l-.35,2,16.21,2.84a1.27,1.27,0,0,0,.55,0,.67.67,0,0,0,.41-.31,2.91,2.91,0,0,0,.33-.76,12.33,12.33,0,0,0,.3-1.34c.47-2.74.1-4.88-1.13-6.42A8.61,8.61,0,0,0,33.24,131.28Z" transform="translate(-7.5 -7.5)"/><path class="cls-2" d="M28.5,114.21l7.25,2.63,1.54-4.24a.82.82,0,0,0-.18-.95,6.9,6.9,0,0,0-1.39-.91.38.38,0,0,1-.25-.3.8.8,0,0,1,.06-.41,1.77,1.77,0,0,1,.12-.28,1.44,1.44,0,0,1,.15-.27l1.57.69q.9.38,1.53.6l1.29.44c.5.15,1.07.32,1.72.48a.59.59,0,0,1,0,.31c0,.14-.07.24-.09.29q-.2.55-.63.42a5.9,5.9,0,0,0-1.7-.15.84.84,0,0,0-.67.59l-1.54,4.24L44,119.83c.42.16.8,0,1.13-.47a12.21,12.21,0,0,0,1.17-2.57l.46-1.27a4.64,4.64,0,0,0,.31-1.6,3.88,3.88,0,0,0-.28-1.35,5,5,0,0,0-.72-1.21q-.45-.57-1.05-1.2a.44.44,0,0,1,0-.49.94.94,0,0,1,.22-.33l.33-.36a4.63,4.63,0,0,1,.4.3l.38.29a3.56,3.56,0,0,0,.63.5,6.27,6.27,0,0,1,.57.41l.62.38.67.41c.21.14.4.26.56.38l.33.23a.52.52,0,0,1,.06.57c-.06.16-.15.39-.28.68s-.26.62-.4,1l-.43,1.05c-.15.35-.28.66-.37.92l-2.48,6.83c-.21.58-.44,1.25-.68,2s-.45,1.46-.63,2.07a.74.74,0,0,1-.34,0l-.28-.11c-.3-.11-.43-.26-.38-.47a7.31,7.31,0,0,0,.15-1.8.93.93,0,0,0-.66-.81l-15.07-5.46a1.08,1.08,0,0,0-.53-.09.73.73,0,0,0-.46.22,3.43,3.43,0,0,0-.48.58c-.17.24-.37.56-.6,1-.14.18-.35.22-.65.11l-.29-.11a.66.66,0,0,1-.26-.16c.37-.84.69-1.59.95-2.24s.47-1.23.65-1.71l2.24-6.16c.32-.91.58-1.69.75-2.37s.31-1.13.4-1.37a.53.53,0,0,1,.44-.38,4.11,4.11,0,0,1,.95.17,11.35,11.35,0,0,0,1.41.28c.36.06.72.11,1.07.14s.78.06,1.3.07a2.28,2.28,0,0,1,0,.37,1,1,0,0,1-.07.39.53.53,0,0,1-.44.38,14.42,14.42,0,0,0-1.6.22,3.68,3.68,0,0,0-1.18.46,2.67,2.67,0,0,0-.87.84,6.19,6.19,0,0,0-.66,1.34Z" transform="translate(-7.5 -7.5)"/><path class="cls-2" d="M46.33,99.5l5.39,3a1.07,1.07,0,0,0,1.21,0,7.61,7.61,0,0,0,1.46-1.63c.18-.24.44-.27.77-.09a3,3,0,0,1,.48.33c-.34.53-.74,1.19-1.22,2s-1,1.68-1.49,2.63c-.37.68-.71,1.34-1,2s-.6,1.24-.86,1.81a.71.71,0,0,1-.28-.09l-.23-.12q-.48-.25-.36-.6c.14-.43.24-.79.31-1.07a2,2,0,0,0,.08-.68.69.69,0,0,0-.16-.44,1.65,1.65,0,0,0-.42-.32L35.91,98.4a1,1,0,0,0-1,0,4.94,4.94,0,0,0-1.24,1.35.67.67,0,0,1-.3.13.81.81,0,0,1-.43-.13l-.26-.14a.47.47,0,0,1-.19-.18c.32-.5.69-1.09,1.09-1.76s.75-1.27,1.05-1.81l2.32-4.24a8.35,8.35,0,0,1,3.92-4,5.18,5.18,0,0,1,4.68.38,6.1,6.1,0,0,1,1.86,1.56,5.56,5.56,0,0,1,1.06,2.2,7.34,7.34,0,0,1,.09,2.66,8.61,8.61,0,0,1-1,2.94Zm-.95-1.6A4.81,4.81,0,0,0,46,94.66,4.17,4.17,0,0,0,43.66,92a5.22,5.22,0,0,0-3.37-.77c-1,.17-1.89,1-2.68,2.42l-.46.84,7.77,4.26Z" transform="translate(-7.5 -7.5)"/><path class="cls-2" d="M59,82.89,55,88.3l2.59,4a1,1,0,0,0,.21.31l.21.2a.68.68,0,0,0,.67.07A3.8,3.8,0,0,0,59.81,92a.54.54,0,0,1,.76,0,3.35,3.35,0,0,1,.4.38c-.38.43-.77.9-1.17,1.4s-.8,1-1.16,1.49c-.26.34-.51.71-.77,1.1s-.54.84-.83,1.34a.66.66,0,0,1-.27-.12l-.21-.15q-.48-.36-.27-.72a5.52,5.52,0,0,0,.51-1.39,1.59,1.59,0,0,0-.21-1L46.32,77.18a.82.82,0,0,1,0-.94,2.43,2.43,0,0,1,.2-.25l.25-.25,19.88,5.05a1.3,1.3,0,0,0,1-.17,4.22,4.22,0,0,0,1-.75.58.58,0,0,1,.8,0,3.85,3.85,0,0,1,.43.4L68.6,81.81l-1.14,1.47-.63.89c-.24.34-.49.71-.74,1.08l-.75,1.1c-.25.36-.45.66-.61.91a.54.54,0,0,1-.27-.11L64.25,87a.7.7,0,0,1-.28-.34.51.51,0,0,1,0-.3,4.56,4.56,0,0,0,.43-1.21.66.66,0,0,0-.26-.69,1.35,1.35,0,0,0-.45-.21Zm-1.65-.45-7.41-2.08,4.15,6.51Z" transform="translate(-7.5 -7.5)"/><path class="cls-2" d="M69.62,67.54l-1,.95,4.61,4.85a1.08,1.08,0,0,0,1.17.32,7.61,7.61,0,0,0,1.88-1.1c.25-.18.51-.13.77.15a3.06,3.06,0,0,1,.35.46c-.48.4-1.06.9-1.76,1.52s-1.43,1.3-2.22,2c-.56.53-1.09,1.05-1.58,1.57s-1,1-1.38,1.45a.6.6,0,0,1-.24-.16,1.51,1.51,0,0,0-.18-.18c-.25-.27-.3-.5-.16-.69.27-.37.47-.68.62-.92a2.39,2.39,0,0,0,.29-.63.71.71,0,0,0,0-.46,1.43,1.43,0,0,0-.31-.44l-11-11.62a1,1,0,0,0-1-.36,5.2,5.2,0,0,0-1.59.9.51.51,0,0,1-.32,0,.75.75,0,0,1-.38-.26l-.2-.21a.49.49,0,0,1-.13-.23c.47-.38,1-.82,1.58-1.34s1.1-1,1.55-1.41l3.5-3.33a10.63,10.63,0,0,1,2.49-1.79A6.83,6.83,0,0,1,67.42,56a5.19,5.19,0,0,1,2.29.33,5.51,5.51,0,0,1,2,1.35,5.1,5.1,0,0,1,1.38,3,6.43,6.43,0,0,1-.63,3.49l8.68,1.85a3.12,3.12,0,0,0,1.76-.08,8.89,8.89,0,0,0,1.34-.61.43.43,0,0,1,.29-.07.62.62,0,0,1,.34.22,1.94,1.94,0,0,0,.2.21.88.88,0,0,1,.17.28c-.18.15-.43.36-.75.65l-1,.88-1,.91-.83.77a2.1,2.1,0,0,1-1.36.52,7.5,7.5,0,0,1-2-.17Zm-1.4-.87a7.42,7.42,0,0,0,1.16-1.37,3.51,3.51,0,0,0,.55-1.43,2.94,2.94,0,0,0-.21-1.5,5.32,5.32,0,0,0-1.13-1.62,4.7,4.7,0,0,0-2.85-1.61,4.19,4.19,0,0,0-3.25,1.5l-.7.66,5.73,6Z" transform="translate(-7.5 -7.5)"/><path class="cls-2" d="M82.74,44.17,92.28,58a2.63,2.63,0,0,0,.34.41.76.76,0,0,0,.41.17,1.81,1.81,0,0,0,.6-.09,6.36,6.36,0,0,0,.94-.39.52.52,0,0,1,.7.17l.15.25a2.45,2.45,0,0,1,.14.29c-.59.35-1.21.74-1.87,1.15s-1.23.8-1.72,1.14-1.07.75-1.68,1.21-1.17.89-1.71,1.32a1,1,0,0,1-.25-.22l-.17-.23a.7.7,0,0,1-.15-.35q0-.16.24-.42a3.09,3.09,0,0,0,1-1.2,1.16,1.16,0,0,0-.27-.92L79.42,46.46l-2.32,1.6a5.94,5.94,0,0,0-1.15,1,3.29,3.29,0,0,0-.59,1.06,3.93,3.93,0,0,0-.14,1.27c0,.46.09,1,.19,1.6a.49.49,0,0,1-.23.51,2,2,0,0,1-.41.19,2.82,2.82,0,0,1-.4.09c-.17-.5-.32-.95-.46-1.33a9.19,9.19,0,0,0-.45-1.11c-.21-.45-.4-.85-.58-1.19a3.19,3.19,0,0,1-.34-.78.49.49,0,0,1,.25-.52c.2-.14.6-.37,1.2-.72s1.32-.79,2.13-1.34l8.11-5.6c.79-.54,1.45-1,2-1.48s.91-.74,1.12-.89a.53.53,0,0,1,.58,0,3,3,0,0,1,.59.6,10,10,0,0,0,.92,1c.27.28.55.56.86.83s.67.57,1.1.89l-.25.35a1.51,1.51,0,0,1-.31.31.55.55,0,0,1-.59.05A12.33,12.33,0,0,0,88.82,42a3.51,3.51,0,0,0-1.23-.32,3,3,0,0,0-1.21.17,5.5,5.5,0,0,0-1.32.7Z" transform="translate(-7.5 -7.5)"/><path class="cls-2" d="M111.24,28.36a.87.87,0,0,1,.21-.57,3.42,3.42,0,0,1,1.23-.7l.69-.31,1-.45,1-.49.89-.45a.8.8,0,0,1,.18.27l.1.24c.14.31.11.54-.08.69-.37.23-.65.42-.85.57a1.73,1.73,0,0,0-.43.44.71.71,0,0,0-.1.41,1.32,1.32,0,0,0,.12.44s.18.41.51,1.1.75,1.55,1.25,2.57,1,2.12,1.61,3.31l1.65,3.39c.52,1.06,1,2,1.35,2.78s.62,1.26.71,1.43a1.52,1.52,0,0,0,.29.46.82.82,0,0,0,.4.22,1.7,1.7,0,0,0,.65,0,9.86,9.86,0,0,0,1-.19c.23-.06.42.08.56.42a2.34,2.34,0,0,1,.15.52l-1.91.69c-.57.21-1.21.47-1.92.77s-1.33.58-2.06.92-1.32.64-1.79.89a2,2,0,0,1-.27-.48.72.72,0,0,1-.09-.48c0-.11.08-.18.14-.2a4.27,4.27,0,0,0,1.36-1.15,1.14,1.14,0,0,0,0-1c0-.06-.17-.37-.44-.92s-.6-1.26-1-2.09-.81-1.73-1.28-2.69L114.75,36l-1.07-2.19c-.3-.62-.48-1-.56-1.12L113,49.33a3.49,3.49,0,0,1-.08.5.35.35,0,0,1-.22.25l-.18.08a.38.38,0,0,1-.19,0L98.59,36.73c.09.26.28.79.58,1.57l1,2.72c.37,1,.77,2.1,1.19,3.23s.81,2.17,1.18,3.13l.9,2.42c.24.65.37,1,.4,1.06a1.57,1.57,0,0,0,.25.43.66.66,0,0,0,.38.24,1.6,1.6,0,0,0,.64,0c.26,0,.62-.1,1.06-.19.23,0,.42.09.56.42a1.49,1.49,0,0,1,.08.23c0,.09,0,.19.08.3-.55.18-1.06.35-1.52.52s-.92.34-1.37.53-.88.39-1.46.67-1.09.54-1.54.78a.72.72,0,0,1-.18-.24l-.09-.24a.71.71,0,0,1-.1-.46.47.47,0,0,1,.18-.24,4.72,4.72,0,0,0,1.13-1,1.13,1.13,0,0,0,.13-1c-.07-.15-.25-.64-.55-1.45s-.65-1.78-1.05-2.89-.84-2.3-1.3-3.55-.89-2.42-1.29-3.49-.73-2-1-2.68-.41-1.1-.43-1.14a.88.88,0,0,0-.63-.59,4.66,4.66,0,0,0-1.58.21c-.22.07-.41-.07-.56-.43a1.91,1.91,0,0,1-.1-.23,1.07,1.07,0,0,1-.07-.32l1.09-.39c.46-.17.93-.36,1.4-.55l1.34-.53.89-.36a7.3,7.3,0,0,1,.84-.31,3.34,3.34,0,0,1,.52-.09.46.46,0,0,1,.32.07l.24.18L111.26,44Z" transform="translate(-7.5 -7.5)"/><path class="cls-2" d="M129.55,24.13l1.59,7.55,4.42-.93a.82.82,0,0,0,.71-.65,6.42,6.42,0,0,0,0-1.66.41.41,0,0,1,.12-.37,1,1,0,0,1,.39-.17l.3,0a1.23,1.23,0,0,1,.31,0c.06.49.14,1.06.24,1.7s.2,1.18.3,1.62.18.82.31,1.33.29,1.08.49,1.71a.72.72,0,0,1-.28.14l-.3.08c-.37.08-.6,0-.68-.32a5.83,5.83,0,0,0-.77-1.52.8.8,0,0,0-.85-.26l-4.42.92,1.48,7c.09.44.42.67,1,.7a11.77,11.77,0,0,0,2.8-.35l1.31-.28a4.53,4.53,0,0,0,1.53-.58,3.63,3.63,0,0,0,1-1,4.88,4.88,0,0,0,.65-1.24c.17-.46.32-1,.47-1.52,0-.16.16-.27.39-.32a1.08,1.08,0,0,1,.39,0l.48.1a3.74,3.74,0,0,1,0,.49c0,.16,0,.32-.05.47a4.1,4.1,0,0,0-.09.81,5.81,5.81,0,0,1,0,.69c0,.22,0,.47,0,.74v.78c0,.25,0,.48,0,.68s0,.33,0,.4a.52.52,0,0,1-.45.35,7.33,7.33,0,0,1-.73.12l-1,.17c-.36.06-.74.13-1.12.18l-1,.18-7.1,1.48c-.61.13-1.3.29-2.08.49s-1.47.38-2.09.55a.74.74,0,0,1-.13-.31q0-.21-.06-.3c-.07-.31,0-.5.2-.57a7.15,7.15,0,0,0,1.61-.83.9.9,0,0,0,.33-1l-3.3-15.69a1.28,1.28,0,0,0-.2-.5.84.84,0,0,0-.43-.27,3.58,3.58,0,0,0-.74-.1c-.3,0-.68,0-1.14,0-.22,0-.36-.19-.43-.5l-.06-.3a.8.8,0,0,1,0-.31c.91-.12,1.71-.25,2.41-.37s1.29-.24,1.79-.34l6.42-1.35c.94-.19,1.74-.4,2.41-.6s1.12-.33,1.37-.39a.55.55,0,0,1,.56.18,3.92,3.92,0,0,1,.35.89,12,12,0,0,0,.52,1.35c.13.34.28.67.43,1s.37.69.64,1.14l-.32.2a1.66,1.66,0,0,1-.37.14.54.54,0,0,1-.56-.18,11.87,11.87,0,0,0-1-1.24,3.77,3.77,0,0,0-1-.77,3,3,0,0,0-1.17-.29,5.91,5.91,0,0,0-1.49.15Z" transform="translate(-7.5 -7.5)"/><path class="cls-2" d="M161.72,32.88l-.42-11.35a1.07,1.07,0,0,0-.51-1,4.71,4.71,0,0,0-1.72-.38.54.54,0,0,1-.43-.6,1.78,1.78,0,0,1,0-.25.76.76,0,0,1,.05-.33c.53.05,1.06.07,1.57.08s1.11,0,1.79,0,1.27-.05,1.76-.09,1-.1,1.47-.18l.06.32c0,.1,0,.19,0,.25,0,.36-.1.57-.36.62a3.41,3.41,0,0,0-1.42.5,1.07,1.07,0,0,0-.35.94l.68,18.71a2.15,2.15,0,0,1-.43.06l-.4,0a1.07,1.07,0,0,1-.48-.09,1.69,1.69,0,0,1-.56-.44L148.84,24.12l.51,13.81a2.35,2.35,0,0,0,.07.53.56.56,0,0,0,.27.34,2.14,2.14,0,0,0,.61.24c.27.06.63.13,1.08.2a.56.56,0,0,1,.28.13.68.68,0,0,1,.13.46,4,4,0,0,1,0,.55l-1.51-.06c-.47,0-1,0-1.63,0s-1.21.06-1.78.11l-1.54.17a.54.54,0,0,1-.08-.28c0-.11,0-.2,0-.26a.68.68,0,0,1,.1-.45.44.44,0,0,1,.26-.17,3.94,3.94,0,0,0,1.52-.54,1,1,0,0,0,.35-.91l-.59-16.18a.92.92,0,0,0-.37-.77,3.54,3.54,0,0,0-1.53-.38c-.26-.05-.39-.25-.41-.59v-.14a1.1,1.1,0,0,1,0-.18l0-.26.86,0,.84,0h1.42l1.17,0a6.61,6.61,0,0,1,1.22,0,1.28,1.28,0,0,1,.52.29Z" transform="translate(-7.5 -7.5)"/><path class="cls-2" d="M181.66,22.46l-2.37,16.67a2.59,2.59,0,0,0,0,.53.69.69,0,0,0,.18.4,1.88,1.88,0,0,0,.5.34,7.39,7.39,0,0,0,1,.35.51.51,0,0,1,.4.6c0,.07,0,.16-.06.28a2.46,2.46,0,0,1-.09.31L179,41.53c-.77-.14-1.44-.26-2-.34s-1.3-.17-2.06-.24-1.47-.14-2.15-.19a.84.84,0,0,1,0-.33,1.85,1.85,0,0,1,0-.29.8.8,0,0,1,.13-.35.61.61,0,0,1,.46-.15,3.15,3.15,0,0,0,1.53-.22,1.14,1.14,0,0,0,.43-.86l2.38-16.66-2.79-.4a5.69,5.69,0,0,0-1.53,0,2.9,2.9,0,0,0-1.15.38,3.72,3.72,0,0,0-1,.84,13.86,13.86,0,0,0-1,1.3.47.47,0,0,1-.51.22,1.78,1.78,0,0,1-.43-.14,2.45,2.45,0,0,1-.36-.2l.57-1.29c.16-.38.3-.75.42-1.12s.28-.9.37-1.28a3.88,3.88,0,0,1,.28-.8.51.51,0,0,1,.55-.21c.23,0,.68.13,1.36.29s1.5.31,2.47.45l9.76,1.38c.95.13,1.78.22,2.47.25s1.17.07,1.43.11a.53.53,0,0,1,.46.35,3.47,3.47,0,0,1,0,.85,8.49,8.49,0,0,0,0,1.32c0,.39,0,.79.07,1.19s.11.88.2,1.41l-.41.08a1.35,1.35,0,0,1-.44,0,.55.55,0,0,1-.47-.35,11.94,11.94,0,0,0-.54-1.52,3.94,3.94,0,0,0-.69-1.07,3.3,3.3,0,0,0-1-.69,5.75,5.75,0,0,0-1.45-.38Z" transform="translate(-7.5 -7.5)"/><path class="cls-2" d="M197.78,34.68a10.39,10.39,0,0,1,2.32-3.59,11.11,11.11,0,0,1,3.42-2.33,10.86,10.86,0,0,1,4-.89,10.58,10.58,0,0,1,4.23.76A11.18,11.18,0,0,1,215.49,31a10.34,10.34,0,0,1,2.38,3.34,10.47,10.47,0,0,1,.87,4,10.9,10.9,0,0,1-.82,4.32,10.44,10.44,0,0,1-2.33,3.61,10.77,10.77,0,0,1-3.42,2.33,11.05,11.05,0,0,1-4.06.87,10.63,10.63,0,0,1-4.24-.76,11.52,11.52,0,0,1-3.69-2.32A10.13,10.13,0,0,1,197.82,43a10.5,10.5,0,0,1-.86-4A10.94,10.94,0,0,1,197.78,34.68Zm7.15,12.64a5.11,5.11,0,0,0,2.48.34,5.81,5.81,0,0,0,2.34-.82,7.76,7.76,0,0,0,2-1.78,9.87,9.87,0,0,0,1.48-2.58,19.29,19.29,0,0,0,1.15-4.09,10.74,10.74,0,0,0,0-3.62,6.86,6.86,0,0,0-1.23-2.9A5.75,5.75,0,0,0,210.61,30a5.14,5.14,0,0,0-2.21-.34,5.4,5.4,0,0,0-2.25.66,7.1,7.1,0,0,0-2,1.66,9,9,0,0,0-1.57,2.65,19.71,19.71,0,0,0-1.18,4.25,11.91,11.91,0,0,0,0,3.72,6.87,6.87,0,0,0,1.17,2.91A5.35,5.35,0,0,0,204.93,47.32Z" transform="translate(-7.5 -7.5)"/><path class="cls-2" d="M227.2,38.87a1.23,1.23,0,0,0,.19-.47.69.69,0,0,0-.1-.48,2.18,2.18,0,0,0-.46-.6c-.21-.22-.5-.49-.86-.81-.14-.16-.14-.38,0-.65a3,3,0,0,1,.16-.26.76.76,0,0,1,.21-.23c.75.53,1.42,1,2,1.37l1.52,1,5.6,3.4c.84.51,1.58.92,2.2,1.22s1,.52,1.24.64a.56.56,0,0,1,.29.52,4.13,4.13,0,0,1-.35.89,11.53,11.53,0,0,0-.55,1.33q-.2.51-.36,1c-.1.34-.21.76-.31,1.27a2,2,0,0,1-.36-.07,1.37,1.37,0,0,1-.37-.15.48.48,0,0,1-.26-.5,11.85,11.85,0,0,0,.09-1.6,3.54,3.54,0,0,0-.21-1.26,2.85,2.85,0,0,0-.66-1,6.05,6.05,0,0,0-1.21-.93l-3.62-2.19-4.19,6.92,3.77,2.29a.81.81,0,0,0,1,0,6.42,6.42,0,0,0,1.16-1.15.55.55,0,0,1,.74,0l.25.17a1.29,1.29,0,0,1,.23.2c-.29.4-.62.87-1,1.41s-.66,1-.9,1.38-.42.72-.67,1.18-.53,1-.81,1.59a.61.61,0,0,1-.29-.08l-.26-.14a.56.56,0,0,1-.31-.71,5,5,0,0,0,.47-1.53.84.84,0,0,0-.41-.87L226,48.57l-3.71,6.13a.68.68,0,0,0-.09.57,1.93,1.93,0,0,0,.34.62,5,5,0,0,0,.65.65l.84.72c.21.15.22.37.05.66l-.18.27a1.75,1.75,0,0,1-.23.27L223,58l-.75-.51q-.68-.49-1.47-1c-.53-.34-1.07-.67-1.59-1L218.3,55l-1-.53c-.33-.18-.67-.36-1-.55l-.92-.5a.85.85,0,0,1,.12-.32,2.69,2.69,0,0,0,.16-.26q.26-.41.54-.27a12.51,12.51,0,0,0,1.68.44.89.89,0,0,0,1-.44Z" transform="translate(-7.5 -7.5)"/><path class="cls-2" d="M247.77,65.06l-1-1L242.16,69a1.08,1.08,0,0,0-.26,1.18A7.21,7.21,0,0,0,243.1,72c.19.24.15.49-.12.77a2.46,2.46,0,0,1-.44.38c-.42-.46-.95-1-1.6-1.68s-1.37-1.37-2.16-2.12q-.84-.79-1.65-1.5c-.54-.47-1-.9-1.52-1.3a.6.6,0,0,1,.15-.25l.18-.19c.25-.26.47-.33.67-.2.38.25.7.44.95.58a2.67,2.67,0,0,0,.64.26.81.81,0,0,0,.47,0,1.43,1.43,0,0,0,.42-.33l11-11.61a1,1,0,0,0,.3-1,4.87,4.87,0,0,0-1-1.54.6.6,0,0,1-.05-.32.71.71,0,0,1,.24-.39l.2-.21a.41.41,0,0,1,.22-.14c.4.44.88.94,1.42,1.5s1,1.06,1.48,1.48l3.5,3.33a10.32,10.32,0,0,1,1.92,2.4,6.66,6.66,0,0,1,.84,2.43,5.31,5.31,0,0,1-.21,2.32,5.44,5.44,0,0,1-1.25,2,5,5,0,0,1-2.88,1.52,6.23,6.23,0,0,1-3.52-.45L250,76.46a3.13,3.13,0,0,0,.16,1.75,10.54,10.54,0,0,0,.68,1.31.43.43,0,0,1,.09.28.63.63,0,0,1-.21.36c-.06.06-.12.13-.2.2a.83.83,0,0,1-.26.19q-.24-.27-.69-.72l-.93-1c-.31-.33-.64-.66-1-1l-.81-.79a2.12,2.12,0,0,1-.59-1.34,7.51,7.51,0,0,1,.07-2Zm.8-1.44A7.87,7.87,0,0,0,250,64.71a3.39,3.39,0,0,0,1.45.47,2.85,2.85,0,0,0,1.49-.28,5.16,5.16,0,0,0,1.56-1.21A4.75,4.75,0,0,0,256,60.76a4.21,4.21,0,0,0-1.67-3.17l-.69-.66-5.73,6Z" transform="translate(-7.5 -7.5)"/><path class="cls-2" d="M270.2,74.93,264,79.56l2.71,3.61a.82.82,0,0,0,.89.36,6.52,6.52,0,0,0,1.53-.66.39.39,0,0,1,.38-.05,1,1,0,0,1,.32.28c0,.06.09.14.17.26a1.41,1.41,0,0,1,.14.27c-.42.26-.9.57-1.44.94s-1,.68-1.34,1-.67.51-1.07.84-.85.72-1.34,1.17a.57.57,0,0,1-.25-.19l-.2-.24c-.23-.3-.23-.56,0-.75A5.93,5.93,0,0,0,265.6,85a.82.82,0,0,0-.13-.88l-2.71-3.61L257,84.83a.93.93,0,0,0-.22,1.2,12.38,12.38,0,0,0,1.51,2.39l.81,1.07a4.63,4.63,0,0,0,1.18,1.14,3.93,3.93,0,0,0,1.28.5,5.07,5.07,0,0,0,1.41.06c.48,0,1-.12,1.57-.22a.42.42,0,0,1,.45.22,1.18,1.18,0,0,1,.15.37l.12.47-.47.17-.45.16a4,4,0,0,0-.76.25,4.88,4.88,0,0,1-.66.25l-.66.32-.71.33-.62.27-.38.14a.52.52,0,0,1-.51-.25c-.1-.14-.24-.34-.41-.61s-.37-.56-.59-.86l-.65-.94q-.32-.48-.57-.81l-4.36-5.8c-.38-.5-.82-1.06-1.32-1.67s-1-1.18-1.39-1.66a.77.77,0,0,1,.23-.26l.24-.18c.26-.19.46-.21.6,0a7,7,0,0,0,1.44,1.1.92.92,0,0,0,1-.11l12.82-9.63a1.2,1.2,0,0,0,.36-.4.8.8,0,0,0,.06-.5,2.87,2.87,0,0,0-.22-.72c-.11-.27-.27-.62-.47-1-.08-.2,0-.41.27-.6l.24-.18a.8.8,0,0,1,.28-.13c.5.77,1,1.44,1.36,2l1.07,1.48,4,5.24c.58.76,1.1,1.41,1.57,1.92s.78.88.93,1.08a.54.54,0,0,1,.08.58,4.12,4.12,0,0,1-.66.7,10.89,10.89,0,0,0-1,1,10.67,10.67,0,0,0-.71.82,12.12,12.12,0,0,0-.77,1l-.31-.2a1.26,1.26,0,0,1-.29-.27.56.56,0,0,1-.08-.58,14.08,14.08,0,0,0,.69-1.46,3.65,3.65,0,0,0,.27-1.24,3,3,0,0,0-.23-1.19,6.28,6.28,0,0,0-.77-1.28Z" transform="translate(-7.5 -7.5)"/><path class="cls-2" d="M277.71,109.17a13.57,13.57,0,0,1-3.15,1.18,6.35,6.35,0,0,1-2.94,0,6.19,6.19,0,0,1-2.68-1.46,11.4,11.4,0,0,1-2.36-3.27,13.53,13.53,0,0,1-1.53-4.38,6.26,6.26,0,0,1,.32-3.18,5.73,5.73,0,0,1,1.73-2.31A15.47,15.47,0,0,1,269.78,94l9.45-4.85a1,1,0,0,0,.65-.8,4.36,4.36,0,0,0-.39-1.71c-.07-.23.06-.42.38-.59l.23-.12a1.09,1.09,0,0,1,.31-.08c.25.56.52,1.16.8,1.8s.66,1.37,1.1,2.22c.34.67.71,1.35,1.11,2.06s.76,1.33,1.09,1.88a2.48,2.48,0,0,1-.26.19l-.22.13c-.32.17-.56.16-.7,0a5.06,5.06,0,0,0-1.21-1.38,1,1,0,0,0-1,0l-8.83,4.53a8.7,8.7,0,0,0-3.93,3.41q-1,1.89.4,4.56c.94,1.82,2.08,2.87,3.44,3.15s3.11-.15,5.27-1.26l8.74-4.48a1,1,0,0,0,.62-.83,4.48,4.48,0,0,0-.37-1.71c-.06-.25.06-.46.36-.62l.24-.1.3-.1c.23.58.45,1.1.67,1.58s.47,1,.74,1.51.6,1.14.87,1.6a15,15,0,0,0,.83,1.34l-.27.19-.22.13a.53.53,0,0,1-.71-.06,3.91,3.91,0,0,0-1.13-1.26,1.09,1.09,0,0,0-1.05,0Z" transform="translate(-7.5 -7.5)"/><path class="cls-2" d="M290.88,123.79a2.19,2.19,0,0,1-.28-.55,1,1,0,0,1,0-.66.86.86,0,0,1,.27-.36,5.67,5.67,0,0,0,1.9-2.63,5.49,5.49,0,0,0-.21-3.21,4.45,4.45,0,0,0-1.53-2.25,2.62,2.62,0,0,0-2.51-.3,2.37,2.37,0,0,0-1.55,1.37,7.72,7.72,0,0,0-.57,2.34c-.09.89-.15,1.84-.17,2.85a14,14,0,0,1-.39,2.92,6.89,6.89,0,0,1-1.22,2.56,5.23,5.23,0,0,1-2.63,1.72,6.83,6.83,0,0,1-2.38.34,5.22,5.22,0,0,1-2.34-.61,6.54,6.54,0,0,1-2.05-1.72,9.24,9.24,0,0,1-1.53-3,14.9,14.9,0,0,1-.74-3.73A15.86,15.86,0,0,1,273,116c.85-.34,1.67-.72,2.47-1.13s1.57-.82,2.31-1.24a2.05,2.05,0,0,1,.35.66,1,1,0,0,1,0,.59,1.13,1.13,0,0,1-.37.46,11.37,11.37,0,0,0-1.7,1.53,5,5,0,0,0-1,1.58,4.15,4.15,0,0,0-.3,1.73,7.29,7.29,0,0,0,.4,2,4.61,4.61,0,0,0,.78,1.52,3.25,3.25,0,0,0,1,.87,2.78,2.78,0,0,0,1.21.31,3.38,3.38,0,0,0,1.26-.18,2.93,2.93,0,0,0,1.81-1.42A6.55,6.55,0,0,0,282,121c.09-.85.14-1.75.16-2.71a12.58,12.58,0,0,1,.33-2.77,6.62,6.62,0,0,1,1.16-2.44,5.36,5.36,0,0,1,2.67-1.7,5.91,5.91,0,0,1,2.41-.3,5.28,5.28,0,0,1,2.25.69,6.86,6.86,0,0,1,1.91,1.65,8.3,8.3,0,0,1,1.36,2.6,13,13,0,0,1,.57,2.66,21,21,0,0,1,.05,3.23c-.6.24-1.26.53-2,.87S291.45,123.47,290.88,123.79Z" transform="translate(-7.5 -7.5)"/><path class="cls-2" d="M296.88,134.5l-7.6,1.32.76,4.45a.82.82,0,0,0,.63.73,6.24,6.24,0,0,0,1.66.1.4.4,0,0,1,.36.14.88.88,0,0,1,.15.39c0,.07,0,.17,0,.3a1.55,1.55,0,0,1,0,.31c-.49,0-1.06.1-1.7.18s-1.19.16-1.64.24-.82.15-1.33.26-1.09.25-1.73.43a.79.79,0,0,1-.13-.29c0-.13-.05-.23-.06-.29-.07-.38,0-.61.33-.68a5.29,5.29,0,0,0,1.55-.71.81.81,0,0,0,.3-.84l-.77-4.45-7.06,1.22c-.44.08-.69.4-.74,1a12,12,0,0,0,.25,2.82l.23,1.32a4.54,4.54,0,0,0,.53,1.55,3.71,3.71,0,0,0,.9,1,5.1,5.1,0,0,0,1.23.7c.45.18.95.35,1.5.52.16,0,.26.17.3.4a1.48,1.48,0,0,1,0,.4l-.12.47a3.65,3.65,0,0,1-.49-.06l-.47-.07a5,5,0,0,0-.8-.12,5.11,5.11,0,0,1-.69-.07l-.74,0-.78,0-.68,0-.39-.05a.5.5,0,0,1-.34-.46c0-.17-.06-.41-.1-.73s-.07-.66-.12-1-.1-.75-.15-1.13-.09-.71-.14-1l-1.22-7.16c-.11-.61-.25-1.31-.41-2.09s-.33-1.49-.48-2.11a.71.71,0,0,1,.32-.12l.3-.05c.32-.06.5,0,.56.22a7.07,7.07,0,0,0,.77,1.64.91.91,0,0,0,1,.37l15.8-2.73a1.22,1.22,0,0,0,.5-.19.79.79,0,0,0,.29-.42,3.84,3.84,0,0,0,.13-.74c0-.29,0-.67.05-1.13,0-.22.2-.36.51-.41l.3,0a.82.82,0,0,1,.31,0c.1.91.19,1.72.29,2.42s.19,1.3.28,1.8l1.11,6.47c.16.94.33,1.75.51,2.42s.29,1.14.34,1.39a.56.56,0,0,1-.2.56,4.6,4.6,0,0,1-.9.31,11.71,11.71,0,0,0-1.37.47c-.35.12-.68.26-1,.4s-.71.34-1.17.59q-.09-.15-.18-.33a1,1,0,0,1-.13-.36.55.55,0,0,1,.2-.56,11.55,11.55,0,0,0,1.27-1,3.8,3.8,0,0,0,.81-1,2.84,2.84,0,0,0,.33-1.17,5.67,5.67,0,0,0-.09-1.49Z" transform="translate(-7.5 -7.5)"/><path class="cls-2" d="M114.86,290.41a.89.89,0,0,1,.6,0,.7.7,0,0,1,.31.29,1.77,1.77,0,0,1,.21.74,8.44,8.44,0,0,1-3.76,1,10.57,10.57,0,0,1-4.12-.86,8.41,8.41,0,0,1-2.29-1.39,6.78,6.78,0,0,1-1.67-2.13,7,7,0,0,1-.7-2.77,8.64,8.64,0,0,1,2.63-6.25,8.88,8.88,0,0,1,2.73-1.72,8.32,8.32,0,0,1,2.93-.59,6.64,6.64,0,0,1,2.63.44,6.39,6.39,0,0,1,4,3.7,7.7,7.7,0,0,1-.39,5.56.21.21,0,0,1-.31.14l-9.35-3.33a6.25,6.25,0,0,0-.43,4.3,4.46,4.46,0,0,0,2.83,2.69,6.63,6.63,0,0,0,2.08.47A5.43,5.43,0,0,0,114.86,290.41Zm-1.54-12a2.48,2.48,0,0,0-2.43.27,6.49,6.49,0,0,0-2.12,3.09l5.08,1.78c.33.11.54,0,.65-.22a6.66,6.66,0,0,0,.36-1.35,5,5,0,0,0,0-1.44,3.24,3.24,0,0,0-.47-1.27A2.15,2.15,0,0,0,113.32,278.39Z" transform="translate(-7.5 -7.5)"/><path class="cls-2" d="M130.58,287.22c-.31-.11-.45-.28-.43-.51a3.17,3.17,0,0,0-.53-2.3,3.45,3.45,0,0,0-1.93-1.21,2.52,2.52,0,0,0-1.9.1,1.85,1.85,0,0,0-1,1.17,1.91,1.91,0,0,0-.08.7,1.29,1.29,0,0,0,.26.68,4,4,0,0,0,.74.76c.34.27.8.59,1.39,1a17.56,17.56,0,0,1,1.81,1.26,6,6,0,0,1,1.22,1.32,3.55,3.55,0,0,1,.57,1.54,4.65,4.65,0,0,1-.17,1.88,5.41,5.41,0,0,1-.82,1.75,4,4,0,0,1-1.43,1.24,5,5,0,0,1-2,.54,8.37,8.37,0,0,1-2.68-.33,17,17,0,0,1-2.39-.9,8.55,8.55,0,0,1-2.3-1.53q.16-.89.39-1.89c.14-.66.3-1.32.48-2l.44.11a1.86,1.86,0,0,1,.6.29.48.48,0,0,1,.19.47,3.08,3.08,0,0,0,.52,2.46,4.45,4.45,0,0,0,2.47,1.48,3.31,3.31,0,0,0,2.05,0,1.71,1.71,0,0,0,1.12-1.2,1.78,1.78,0,0,0-.28-1.55,7.18,7.18,0,0,0-2.15-1.77A7.39,7.39,0,0,1,121.8,288a4.31,4.31,0,0,1-.23-3,4.44,4.44,0,0,1,2.34-3,5.56,5.56,0,0,1,4-.27,10.29,10.29,0,0,1,2.44,1,10.88,10.88,0,0,1,1.77,1.22c0,.18-.07.43-.13.73s-.13.64-.2,1-.15.69-.23,1-.14.6-.2.82Z" transform="translate(-7.5 -7.5)"/><path class="cls-2" d="M142,297.88a1.26,1.26,0,0,1,.62-.1c.22,0,.42.32.59.84a8.72,8.72,0,0,1-2.8,1.28,6.62,6.62,0,0,1-2.35,0,5,5,0,0,1-1.28-.4,2.88,2.88,0,0,1-1-.8,3.22,3.22,0,0,1-.62-1.36,5.47,5.47,0,0,1,0-2l1.6-9.4-2.05-.35.14-.85a1.3,1.3,0,0,1,.13-.33c.07-.13.22-.18.45-.14a3,3,0,0,0,1.8-.24,3.72,3.72,0,0,0,1.53-1.37,4.83,4.83,0,0,1,1-1.13,1.35,1.35,0,0,1,1-.32l.72.12-.61,3.55,4,.68a3.72,3.72,0,0,1-.39,1.37.59.59,0,0,1-.62.22l-3.28-.56-1.43,8.44a14.09,14.09,0,0,0-.21,1.64,2.84,2.84,0,0,0,.07.94.69.69,0,0,0,.34.46,1.8,1.8,0,0,0,.58.19,2.69,2.69,0,0,0,.92,0A4.55,4.55,0,0,0,142,297.88Z" transform="translate(-7.5 -7.5)"/><path class="cls-2" d="M145.69,298.36a2.59,2.59,0,0,1,.91-1.8,2.45,2.45,0,0,1,1.89-.59,2.41,2.41,0,0,1,1.71.92,2.59,2.59,0,0,1,.56,1.93,2.5,2.5,0,0,1-.91,1.76,2.51,2.51,0,0,1-3.59-.32A2.53,2.53,0,0,1,145.69,298.36Z" transform="translate(-7.5 -7.5)"/><path class="cls-2" d="M162.49,289.14a.89.89,0,0,1-.44.23,1.2,1.2,0,0,1-.47-.12,1,1,0,0,1-.45-.39,10.87,10.87,0,0,1,1.33-1.56,10.38,10.38,0,0,1,1.59-1.3,9.86,9.86,0,0,1,1.8-.92,6.4,6.4,0,0,1,1.94-.41,5.22,5.22,0,0,1,3.85,1,4.32,4.32,0,0,1,1.39,3.15,5.26,5.26,0,0,1-.25,1.94,6.93,6.93,0,0,1-1.13,2,19.88,19.88,0,0,1-2.27,2.47q-1.44,1.38-3.67,3.22l5.09-.25A2.68,2.68,0,0,0,172,298a2.1,2.1,0,0,0,.77-1.16.57.57,0,0,1,.54-.41,2.61,2.61,0,0,1,.48,0h.16a.59.59,0,0,0,.19,0c-.17.64-.34,1.32-.49,2.06s-.26,1.44-.34,2.11a.68.68,0,0,1-.15.36.6.6,0,0,1-.35.08c-.41,0-.93,0-1.56,0s-1.31,0-2,0l-7.41.37-.06-1.07q2-2,3.28-3.51a27,27,0,0,0,2.07-2.69,8.59,8.59,0,0,0,1.05-2.15,5.63,5.63,0,0,0,.24-1.87,3.39,3.39,0,0,0-.72-2.14,2.09,2.09,0,0,0-1.75-.65,3.5,3.5,0,0,0-1.52.4A11.73,11.73,0,0,0,162.49,289.14Z" transform="translate(-7.5 -7.5)"/><path class="cls-2" d="M186.17,299.54a9.92,9.92,0,0,1-3.6,0,7.28,7.28,0,0,1-2.92-1.22,7.54,7.54,0,0,1-2.09-2.32,9.71,9.71,0,0,1-1.17-3.26,8.93,8.93,0,0,1,0-3.38,7.8,7.8,0,0,1,1.21-3,8.15,8.15,0,0,1,2.28-2.25,8.6,8.6,0,0,1,3.28-1.28,8.89,8.89,0,0,1,3.49,0,7.94,7.94,0,0,1,2.94,1.27,7.86,7.86,0,0,1,2.17,2.34,10,10,0,0,1,1.23,6.61,8,8,0,0,1-1.15,2.92,7.3,7.3,0,0,1-2.3,2.22A9.14,9.14,0,0,1,186.17,299.54ZM180.93,292a12,12,0,0,0,.84,2.88A6.56,6.56,0,0,0,183,296.7a3.62,3.62,0,0,0,1.44.94,3,3,0,0,0,1.52.11,2.92,2.92,0,0,0,1.28-.59,3.28,3.28,0,0,0,1-1.36,6.9,6.9,0,0,0,.48-2.16,11.87,11.87,0,0,0-.21-3,12.67,12.67,0,0,0-.85-2.93,6.82,6.82,0,0,0-1.21-1.91,3.54,3.54,0,0,0-1.42-1,2.87,2.87,0,0,0-2.8.5,3.48,3.48,0,0,0-1,1.38,6.35,6.35,0,0,0-.47,2.2A13.61,13.61,0,0,0,180.93,292Z" transform="translate(-7.5 -7.5)"/><path class="cls-2" d="M195.1,284.6a.76.76,0,0,1-.36.33,1,1,0,0,1-.49,0,1.11,1.11,0,0,1-.54-.27,11.52,11.52,0,0,1,.89-1.84,10.59,10.59,0,0,1,1.22-1.66,9.54,9.54,0,0,1,1.5-1.35,6.51,6.51,0,0,1,1.77-.88,5.23,5.23,0,0,1,4,0,4.36,4.36,0,0,1,2.15,2.71,5.28,5.28,0,0,1,.24,1.93,6.87,6.87,0,0,1-.57,2.26,22,22,0,0,1-1.57,3c-.7,1.13-1.62,2.47-2.74,4l4.86-1.53a2.72,2.72,0,0,0,1.05-.57,2.2,2.2,0,0,0,.46-1.33.58.58,0,0,1,.41-.53l.48-.08.16,0a.72.72,0,0,0,.19,0c0,.66,0,1.36,0,2.11s.11,1.47.21,2.14a.6.6,0,0,1-.06.38.68.68,0,0,1-.31.17c-.4.13-.9.26-1.51.41s-1.27.32-2,.54l-7.08,2.24-.32-1q1.41-2.44,2.28-4.22a27,27,0,0,0,1.32-3.13,8.31,8.31,0,0,0,.48-2.35,6,6,0,0,0-.25-1.87,3.36,3.36,0,0,0-1.23-1.88,2.07,2.07,0,0,0-1.86-.19,3.49,3.49,0,0,0-1.37.77A12.12,12.12,0,0,0,195.1,284.6Z" transform="translate(-7.5 -7.5)"/><path class="cls-2" d="M206.25,276.82c.56-.17,1.16-.37,1.81-.62l2.21-.91q1.24-.54,2.16-1t1.71-.9c.07.1.13.2.19.3s.1.2.13.28a.41.41,0,0,1,0,.38.85.85,0,0,1-.2.22,3.82,3.82,0,0,0-1.27,1,.91.91,0,0,0,0,.85l4.6,10.77a.81.81,0,0,0,.7.53,5.14,5.14,0,0,0,1.56-.18.94.94,0,0,1,.29,0,.39.39,0,0,1,.24.26,2.9,2.9,0,0,1,.19.63c-.57.19-1.18.41-1.83.65s-1.39.54-2.22.9-1.54.68-2.14,1-1.15.59-1.66.86a.75.75,0,0,1-.21-.27,3.18,3.18,0,0,1-.16-.32.42.42,0,0,1,.17-.57,5.49,5.49,0,0,0,1.23-1,.82.82,0,0,0,.08-.87l-4.61-10.77a.8.8,0,0,0-.7-.51,4.67,4.67,0,0,0-1.54.19.64.64,0,0,1-.31,0c-.08,0-.16-.12-.23-.29l-.13-.29A.94.94,0,0,1,206.25,276.82Z" transform="translate(-7.5 -7.5)"/><circle class="cls-3" cx="152.5" cy="152.5" r="115"/><circle class="cls-4" cx="152.5" cy="152.5" r="110"/><path class="cls-5" d="M106.05,122.08c28.62-52.54,120.09-39.77,121.2,33.85" transform="translate(-7.5 -7.5)"/><polygon class="cls-6" points="128.28 114.44 90.1 152.41 76.3 100.37 128.28 114.44"/><path class="cls-5" d="M218.78,197.92c-28.62,52.54-120.09,39.77-121.19-33.85" transform="translate(-7.5 -7.5)"/><polygon class="cls-6" points="181.56 190.56 219.73 152.59 233.53 204.63 181.56 190.56"/></svg>